<svg xmlns="http://www.w3.org/2000/svg" width="512" height="512" viewBox="0 0 512 512" version="1.1">
	<path d="M 217.338 81.036 C 178.705 85.851, 146.025 101.074, 120.886 125.966 C 84.630 161.867, 67.810 207.491, 67.601 270.500 C 67.498 301.615, 70.167 320.412, 78.107 344.500 C 97.660 403.818, 143.957 443.679, 207.557 455.953 C 238.392 461.904, 280.225 461.147, 317.445 453.965 C 342.383 449.152, 379.032 437.259, 384.209 432.300 L 387 429.626 387 401.813 C 387 386.516, 386.616 374, 386.147 374 C 385.679 374, 380.592 376.218, 374.844 378.930 C 334.824 397.807, 299.695 406, 258.773 406 C 230.182 406, 212.454 402.403, 192.500 392.555 C 160.415 376.720, 140.078 346.904, 132.959 305.261 C 130.551 291.175, 130.538 289.728, 132.805 287.677 C 134.452 286.186, 146.015 286.020, 265.055 285.772 C 378.771 285.535, 395.852 285.308, 398.242 284 L 400.984 282.500 400.992 259.494 C 401.004 225.090, 398.035 203.926, 389.882 180.280 C 371.500 126.971, 331.839 92.556, 277.013 82.342 C 267.047 80.485, 228.527 79.642, 217.338 81.036 M 219.921 135.430 C 175.422 143.232, 144.767 173.154, 135.089 218.233 C 133.940 223.585, 133 229.773, 133 231.983 L 133 236 236.650 236 L 340.300 236 339.700 225.250 C 338.309 200.324, 328.610 177.604, 312.137 160.683 C 300.528 148.758, 289.933 142.385, 273.421 137.394 C 265.357 134.957, 262.722 134.669, 246 134.399 C 233.787 134.202, 224.925 134.552, 219.921 135.430" stroke="none" fill="black" fill-rule="evenodd"/>
</svg>